<svg width="171.11" height="86.784" viewBox="0 0 45.27293 22.961563" xmlns="http://www.w3.org/2000/svg"><g fill-opacity=".941"><path d="M14.03 12.009l.099-2.423 1.42-.315 1.42-.315.007-3.361.006-3.362 1.344-1.116L19.67 0l.572.429c.314.236 1.21 1.033 1.992 1.77l1.42 1.342V6.73l.836.547.835.548v5.939h6.016v.668H13.932zm8.287-1.922c0-2.206-.068-4.01-.151-4.01-.084 0-.535.174-1.003.387l-.851.388v7.246h2.005zm-6.35 1.515V9.44l-.752.277-.752.277-.1 1.885-.1 1.885h1.704zm3.837-2.935c.128-2.803.181-5.815.12-6.694L19.81.377 18.536 1.43 17.26 2.484l.083 3.348.082 3.347.608.159.607.159v4.267h.932z" fill="#169fef"/><text x=".105" y="72.093" fill="#159fef" font-family="sans-serif" font-size="8.15" letter-spacing="0" stroke-width=".085" word-spacing="0" style="line-height:2.12250018px" transform="translate(-.563 -49.255)"><tspan x=".105" y="72.093">GranitProm</tspan></text></g></svg>