<svg xmlns="http://www.w3.org/2000/svg" width="533.25" height="270.454" viewBox="0 0 141.08906 71.557674"><g fill-opacity=".941"><path d="M43.724 37.423l.306-7.551 4.426-.981 4.427-.982.019-10.476.019-10.476 4.188-3.478L61.3 0l1.78 1.338c.98.735 3.774 3.218 6.21 5.518l4.426 4.18v9.934l2.604 1.707 2.604 1.706v18.509H97.67v2.083H43.418zm25.825-5.989c0-6.874-.213-12.499-.472-12.499-.26 0-1.666.544-3.125 1.21l-2.653 1.208v22.58h6.25zm-19.79 4.721v-6.737l-2.344.863-2.344.862-.312 5.874-.312 5.875h5.311zm11.959-9.147c.397-8.737.563-18.123.37-20.86l-.351-4.975-3.973 3.283-3.972 3.283.258 10.433.257 10.433 1.892.494 1.892.495v13.298h2.906z" fill="#169fef"/><text style="line-height:6.61458302px" x="-.864" y="71.832" font-weight="400" font-size="25.4" font-family="sans-serif" letter-spacing="0" word-spacing="0" fill="#159fef" stroke-width=".265" transform="translate(-.563 -.659)"><tspan x="-.864" y="71.832">GranitProm</tspan></text></g></svg>