<svg width="533.25" height="270.45" viewBox="0 0 141.08906 71.557674" xmlns="http://www.w3.org/2000/svg"><g fill-opacity=".941"><path d="M43.723 37.423l.306-7.551 4.427-.982 4.427-.98.019-10.477.018-10.476 4.19-3.478L61.297 0l1.781 1.338c.98.735 3.774 3.219 6.209 5.518l4.427 4.18v9.935l2.604 1.706 2.604 1.706v18.509h18.749v2.083H43.418zm25.825-5.99c0-6.874-.212-12.498-.471-12.498s-1.666.544-3.125 1.209l-2.653 1.209v22.58h6.25zm-19.79 4.722v-6.737l-2.343.862-2.344.863-.312 5.874-.313 5.874h5.312zm11.96-9.148c.396-8.736.563-18.123.37-20.859l-.352-4.975-3.972 3.283L53.79 7.74l.258 10.433.258 10.433 1.892.495 1.892.495v13.298h2.905z" fill="#169fef"/><text x="-.864" y="71.832" fill="#159fef" font-family="sans-serif" font-size="25.4" letter-spacing="0" stroke-width=".265" word-spacing="0" style="line-height:6.61458302px" transform="translate(-.563 -.659)"><tspan x="-.864" y="71.832">GranitProm</tspan></text></g></svg>